<svg width="98" height="110" viewBox="0 0 98 110" fill="none" xmlns="http://www.w3.org/2000/svg">
<g clip-path="url(#clip0_1_8)">
<g filter="url(#filter0_d_1_8)">
<path d="M49.5 97L36.9426 79H62.0574L49.5 97Z" fill="white"/>
<path d="M89 45C89 67.0914 71.0914 85 49 85C26.9086 85 9 67.0914 9 45C9 22.9086 26.9086 5 49 5C71.0914 5 89 22.9086 89 45Z" fill="white"/>
<path d="M84 45C84 64.33 68.33 80 49 80C29.67 80 14 64.33 14 45C14 25.67 29.67 10 49 10C68.33 10 84 25.67 84 45Z" fill="#005EFF" fill-opacity="0.68"/>
</g>
<path d="M35.075 22C37.875 20.1 41.275 19 45 19C54.825 19 62.5 26.675 62.5 36.5C62.5 39.65 61.55 43.125 59.825 46.25C59.775 46.35 59.7 46.45 59.625 46.575L55.925 42.875C56.925 40.725 57.5 38.5 57.5 36.5C57.5 29.5 52 24 45 24C42.7 24 40.6 24.65 38.75 25.675L35.075 22ZM63.025 49.95L66.6 53.525C70.275 48.825 72.5 42.925 72.5 36.5C72.5 28.9 69.425 22.025 64.45 17.05L60.9 20.6C64.975 24.65 67.5 30.275 67.5 36.5C67.5 41.55 65.825 46.2 63.025 49.95ZM45 30.25C44.475 30.25 44 30.325 43.525 30.45L51.05 37.975C51.175 37.5 51.25 37.025 51.25 36.5C51.25 33.05 48.45 30.25 45 30.25ZM72.975 66.975L27.025 21.025L23.475 24.55L28.8 29.875C27.975 31.9 27.5 34.125 27.5 36.5H32.5C32.5 35.6 32.625 34.725 32.8 33.875L49.325 50.4C47.125 52.1 44.875 53.925 43.65 57.65C42.4 61.4 41.15 62.675 39.375 63.6C38.9 63.85 38.225 64 37.5 64C34.75 64 32.5 61.75 32.5 59H27.5C27.5 64.525 31.975 69 37.5 69C38.925 69 40.325 68.7 41.6 68.125C45 66.35 46.925 63.8 48.425 59.25C49.225 56.8 50.675 55.675 52.7 54.125C52.775 54.075 52.825 54.025 52.9 53.975L69.45 70.525L72.975 66.975Z" fill="white"/>
</g>
<defs>
<filter id="filter0_d_1_8" x="0.7" y="0.7" width="96.6" height="108.6" filterUnits="userSpaceOnUse" color-interpolation-filters="sRGB">
<feFlood flood-opacity="0" result="BackgroundImageFix"/>
<feColorMatrix in="SourceAlpha" type="matrix" values="0 0 0 0 0 0 0 0 0 0 0 0 0 0 0 0 0 0 127 0" result="hardAlpha"/>
<feOffset dy="4"/>
<feGaussianBlur stdDeviation="4.15"/>
<feComposite in2="hardAlpha" operator="out"/>
<feColorMatrix type="matrix" values="0 0 0 0 0 0 0 0 0 0 0 0 0 0 0 0 0 0 0.25 0"/>
<feBlend mode="normal" in2="BackgroundImageFix" result="effect1_dropShadow_1_8"/>
<feBlend mode="normal" in="SourceGraphic" in2="effect1_dropShadow_1_8" result="shape"/>
</filter>
<clipPath id="clip0_1_8">
<rect width="98" height="110" fill="white"/>
</clipPath>
</defs>
</svg>
