<svg width="98" height="110" viewBox="0 0 98 110" fill="none" xmlns="http://www.w3.org/2000/svg">
<g clip-path="url(#clip0_1_8)">
<g filter="url(#filter0_d_1_8)">
<path d="M49.5 97L36.9426 79H62.0574L49.5 97Z" fill="white"/>
<path d="M89 45C89 67.0914 71.0914 85 49 85C26.9086 85 9 67.0914 9 45C9 22.9086 26.9086 5 49 5C71.0914 5 89 22.9086 89 45Z" fill="white"/>
<path d="M84 45C84 64.33 68.33 80 49 80C29.67 80 14 64.33 14 45C14 25.67 29.67 10 49 10C68.33 10 84 25.67 84 45Z" fill="#FF0000" fill-opacity="0.75"/>
</g>
<g clip-path="url(#clip1_1_8)">
<path d="M49 25.975L67.825 58.5H30.175L49 25.975ZM49 16L21.5 63.5H76.5L49 16ZM51.5 51H46.5V56H51.5V51ZM51.5 36H46.5V46H51.5V36Z" fill="white"/>
</g>
</g>
<defs>
<filter id="filter0_d_1_8" x="0.7" y="0.7" width="96.6" height="108.6" filterUnits="userSpaceOnUse" color-interpolation-filters="sRGB">
<feFlood flood-opacity="0" result="BackgroundImageFix"/>
<feColorMatrix in="SourceAlpha" type="matrix" values="0 0 0 0 0 0 0 0 0 0 0 0 0 0 0 0 0 0 127 0" result="hardAlpha"/>
<feOffset dy="4"/>
<feGaussianBlur stdDeviation="4.15"/>
<feComposite in2="hardAlpha" operator="out"/>
<feColorMatrix type="matrix" values="0 0 0 0 0 0 0 0 0 0 0 0 0 0 0 0 0 0 0.25 0"/>
<feBlend mode="normal" in2="BackgroundImageFix" result="effect1_dropShadow_1_8"/>
<feBlend mode="normal" in="SourceGraphic" in2="effect1_dropShadow_1_8" result="shape"/>
</filter>
<clipPath id="clip0_1_8">
<rect width="98" height="110" fill="white"/>
</clipPath>
<clipPath id="clip1_1_8">
<rect width="60" height="60" fill="white" transform="translate(19 11)"/>
</clipPath>
</defs>
</svg>
