<svg width="98" height="110" viewBox="0 0 98 110" fill="none" xmlns="http://www.w3.org/2000/svg">
<g clip-path="url(#clip0_1_8)">
<g filter="url(#filter0_d_1_8)">
<path d="M49.5 97L36.9426 79H62.0574L49.5 97Z" fill="white"/>
<path d="M89 45C89 67.0914 71.0914 85 49 85C26.9086 85 9 67.0914 9 45C9 22.9086 26.9086 5 49 5C71.0914 5 89 22.9086 89 45Z" fill="white"/>
<path d="M84 45C84 64.33 68.33 80 49 80C29.67 80 14 64.33 14 45C14 25.67 29.67 10 49 10C68.33 10 84 25.67 84 45Z" fill="#005EFF" fill-opacity="0.68"/>
</g>
<g clip-path="url(#clip1_1_8)">
<path d="M49.5 26.875C52.6411 26.875 55.1875 24.3286 55.1875 21.1875C55.1875 18.0464 52.6411 15.5 49.5 15.5C46.3589 15.5 43.8125 18.0464 43.8125 21.1875C43.8125 24.3286 46.3589 26.875 49.5 26.875Z" fill="white"/>
<path d="M58.21 44.035L71.7625 67.5L73.875 66.265L61.33 44.555C61.72 44.5875 62.0775 44.6525 62.5 44.6525V39.7775C52.49 39.7775 52.7175 32.7575 49.1425 29.865C48.2975 29.215 47.29 28.7925 46.25 28.63C45.0475 28.4025 43.7475 28.5 42.545 28.9875L30 34.3175V44.75H34.875V37.535L39.295 35.65C38.6125 38.12 38.125 40.525 38.125 43.0925V56.0925L31.625 64.2175L34.875 67.4675L43 57.75L43.6175 49.235L47.875 54.4675V67.5H52.75V51.2175L48.005 44.945C47.94 44.23 47.615 41.37 48.915 37.34C49.63 38.445 52.7825 42.475 58.21 44.035Z" fill="white"/>
</g>
</g>
<defs>
<filter id="filter0_d_1_8" x="0.7" y="0.7" width="96.6" height="108.6" filterUnits="userSpaceOnUse" color-interpolation-filters="sRGB">
<feFlood flood-opacity="0" result="BackgroundImageFix"/>
<feColorMatrix in="SourceAlpha" type="matrix" values="0 0 0 0 0 0 0 0 0 0 0 0 0 0 0 0 0 0 127 0" result="hardAlpha"/>
<feOffset dy="4"/>
<feGaussianBlur stdDeviation="4.15"/>
<feComposite in2="hardAlpha" operator="out"/>
<feColorMatrix type="matrix" values="0 0 0 0 0 0 0 0 0 0 0 0 0 0 0 0 0 0 0.25 0"/>
<feBlend mode="normal" in2="BackgroundImageFix" result="effect1_dropShadow_1_8"/>
<feBlend mode="normal" in="SourceGraphic" in2="effect1_dropShadow_1_8" result="shape"/>
</filter>
<clipPath id="clip0_1_8">
<rect width="98" height="110" fill="white"/>
</clipPath>
<clipPath id="clip1_1_8">
<rect width="65" height="65" fill="white" transform="translate(17 9)"/>
</clipPath>
</defs>
</svg>
